<svg data-v-fde0c5aa="" xmlns="http://www.w3.org/2000/svg" viewBox="0 0 300 300" class="iconLeft"><!----><defs data-v-fde0c5aa=""><!----></defs><rect data-v-fde0c5aa="" fill="#161C60" x="0" y="0" width="300px" height="300px" class="logo-background-square"></rect><defs data-v-fde0c5aa=""><!----></defs><g data-v-fde0c5aa="" id="90f046e6-1ca6-404e-bb21-346dd7f4d77c" fill="#25BDD6" transform="matrix(4.547513872815959,0,0,4.547513872815959,137.71735161845214,112.25563507246989)"><path d="M0.22 12.46L0.22 12.46L0.22 10.81Q1.30 11.42 2.31 11.42L2.31 11.42Q2.91 11.42 3.19 11.07Q3.46 10.72 3.46 10.01L3.46 10.01L3.46 3.75L5.12 3.75L5.12 10.01Q5.12 11.58 4.37 12.35L4.37 12.35Q3.70 13.03 2.52 13.03Q1.34 13.03 0.22 12.46ZM7.52 3.75L9.88 3.75L12.38 9.16L14.87 3.75L17.15 3.75L17.15 12.84L15.48 12.84L15.48 5.94L12.91 11.84L11.83 11.84L9.17 5.74L9.17 12.84L7.52 12.84L7.52 3.75ZM25.51 12.84L25.33 11.40Q24.74 13.03 23.07 13.03L23.07 13.03Q21.36 13.03 20.26 11.75L20.26 11.75Q19.11 10.42 19.11 8.34L19.11 8.34Q19.11 6.16 20.34 4.84L20.34 4.84Q21.53 3.57 23.41 3.57L23.41 3.57Q24.68 3.57 25.54 4.12Q26.40 4.68 26.89 5.87L26.89 5.87L25.20 6.26Q24.46 5.07 23.32 5.07L23.32 5.07Q22.29 5.07 21.60 5.95L21.60 5.95Q20.89 6.85 20.89 8.34L20.89 8.34Q20.89 9.76 21.53 10.64L21.53 10.64Q22.16 11.51 23.21 11.51L23.21 11.51Q24.11 11.51 24.68 10.93L24.68 10.93Q25.27 10.35 25.27 9.32L25.27 9.32L25.27 9.27L23.23 9.23L23.23 8.16L26.85 8.16L26.85 12.84L25.51 12.84Z"></path></g><defs data-v-fde0c5aa=""><!----></defs><g data-v-fde0c5aa="" id="e31ad485-598f-45b7-b22a-8e7d4486c907" stroke="none" fill="#25BDD6" transform="matrix(0.8755652372748441,0,0,0.8755652372748441,869.9482563486681,-726.3970349383075)"><switch><g><path d="M-855.3 964.1h-87.3c-2.9 0-5.3 2.4-5.3 5.3v63.1c0 2.9 2.4 5.3 5.3 5.3h87.3c2.9 0 5.3-2.4 5.3-5.3v-63.1c0-2.9-2.4-5.3-5.3-5.3zm-61.3 5.5h35.3c.8 0 1.4.6 1.4 1.4 0 .8-.6 1.4-1.4 1.4h-35.3c-.8 0-1.4-.6-1.4-1.4 0-.8.6-1.4 1.4-1.4zm-15.3 0c.8 0 1.4.6 1.4 1.4s-.6 1.4-1.4 1.4c-.8 0-1.4-.6-1.4-1.4s.6-1.4 1.4-1.4zm-4.7 0c.8 0 1.4.6 1.4 1.4s-.6 1.4-1.4 1.4c-.8 0-1.4-.6-1.4-1.4s.7-1.4 1.4-1.4zm-4.6 0c.8 0 1.4.6 1.4 1.4s-.6 1.4-1.4 1.4-1.4-.6-1.4-1.4.6-1.4 1.4-1.4zm88.4 63c0 1.4-1.1 2.5-2.5 2.5h-87.3c-1.4 0-2.5-1.1-2.5-2.5v-54.7h92.4v54.7z"></path><path d="M-910.9 1012.3l-7.3-5.1 7.3-5.1-2.5-3.5-12.3 8.6 12.3 8.6zM-890.6 991h-4.9l-11.9 31h4.8zM-884.6 1015.8l12.3-8.6-12.3-8.6-2.5 3.5 7.3 5.1-7.3 5.1z"></path></g></switch></g><!----></svg>